# 3ds Max Wavefront OBJ Exporter v0.97b - (c)2007 guruware
# File Created: 20.07.2020 19:30:30

#
# object Simple_Tree_04
#

v  -10.2034 15.8088 -8.0324
v  -10.1894 15.6629 -7.9707
v  -10.3370 15.6361 -8.0297
v  -10.3218 15.7740 -7.9358
v  -0.5273 -0.0382 0.5162
v  -0.8042 0.2569 -0.3811
v  0.6338 -0.0412 -0.5667
v  -1.7548 12.2960 -2.0655
v  -0.7384 11.1680 -1.3576
v  -1.1910 11.0746 0.0215
v  -0.1258 7.1412 0.4018
v  0.4778 10.2823 -0.6298
v  0.3456 13.4466 -2.3633
v  -2.8912 13.8471 -3.5806
v  -5.3973 14.5067 -4.0885
v  -5.0938 15.0593 -3.8901
v  -0.9332 13.0058 -1.3711
v  -2.4360 13.1207 -1.9138
v  0.0118 11.5537 -0.1567
v  -0.3988 13.8172 -2.5695
v  -0.3421 13.7781 -1.5697
v  0.7246 7.7455 1.2640
v  -0.1316 10.4766 0.6422
v  -2.2827 15.1359 1.8747
v  -1.5552 15.3389 2.0849
v  1.0438 5.8444 -0.2438
v  0.2931 0.0533 0.6059
v  1.2407 5.9858 1.0016
v  -2.7146 17.7501 0.5475
v  -2.8004 17.6652 0.3987
v  -2.7218 18.7035 0.5109
v  -2.4470 18.9056 0.4214
v  -2.0489 18.4572 0.8313
v  -2.0002 18.0219 0.6074
v  -2.3483 18.3845 0.6018
v  -2.0638 19.4483 0.6872
v  -16.0724 16.2855 -4.5663
v  -16.0865 11.1779 -2.5843
v  -18.2902 14.2343 -0.6481
v  -14.4116 9.7881 2.1847
v  -15.7008 20.8961 0.5251
v  -12.3192 20.4240 -5.2126
v  -13.2637 12.1565 -6.9548
v  -11.2640 9.2084 -3.8892
v  -13.8586 17.5148 -6.2606
v  -10.5376 22.4559 -2.3863
v  -9.7154 11.3245 -6.6070
v  -10.1758 15.4651 -8.0107
v  -10.4831 24.3521 1.0689
v  -8.2230 16.9757 -7.1315
v  -8.2586 9.0429 1.3400
v  -7.2455 9.7422 -2.1640
v  -5.2404 11.4513 -1.8550
v  -6.3096 14.8248 -6.2632
v  -7.2708 17.1930 -10.8175
v  -7.8083 18.2061 -6.0348
v  -7.8386 22.0232 -10.1360
v  -6.9580 22.2426 -12.4204
v  -7.4225 23.5951 -2.4451
v  -4.7064 13.3403 -11.4753
v  -4.5466 17.6310 -13.9402
v  -6.1877 24.1090 -6.7645
v  -3.3506 26.5545 -10.2008
v  -5.5618 26.2639 -3.3228
v  -2.7130 12.4761 -8.8550
v  -4.1349 15.2273 -2.5878
v  -4.7494 14.3387 2.0060
v  -3.4862 16.5881 -0.0326
v  -1.4057 23.6403 -14.8061
v  -3.2671 27.2208 -4.7423
v  -2.5331 26.8248 -0.5419
v  -4.5004 23.4500 0.8901
v  -2.2050 15.4748 -14.2249
v  -0.9125 12.9964 -1.7082
v  -1.2032 15.4448 1.2344
v  -0.2663 21.0425 -15.6110
v  2.4090 12.4935 -8.3750
v  1.8533 12.8730 -5.4900
v  1.4637 26.7978 -11.0066
v  1.3493 26.2507 -0.9790
v  -0.4305 27.2429 -3.8110
v  1.6219 27.3266 -8.4097
v  -19.1997 21.5960 5.9327
v  -18.2851 16.1066 6.6116
v  -17.8364 18.2145 10.5430
v  -17.3695 21.1598 11.0763
v  -16.5598 15.4366 4.2889
v  -17.0433 14.7903 8.4364
v  -16.5908 19.1637 1.9383
v  -15.0507 24.3384 2.0366
v  -14.1243 25.5669 10.1872
v  -14.5937 11.2533 4.9479
v  -15.5915 10.3871 9.6384
v  -13.4176 9.7643 11.8579
v  -15.5697 13.5658 13.3767
v  -14.0043 22.5287 12.8888
v  -12.9699 16.0901 15.8696
v  -15.8302 25.1803 4.7417
v  -11.9998 26.6638 5.8164
v  -12.7749 8.6942 7.2149
v  -10.1126 9.8522 4.2195
v  -10.9319 12.5129 15.7238
v  -9.7188 23.0564 11.8680
v  -9.0382 8.2553 8.1052
v  -7.8067 16.7187 16.8686
v  -9.9125 19.0779 15.2643
v  -7.3871 10.3892 13.5908
v  -5.9225 17.8185 13.8014
v  -9.5299 25.3524 8.1906
v  -6.5929 25.3852 3.6002
v  -4.5762 10.7194 10.1086
v  -5.0193 11.1718 6.5168
v  -6.4539 12.0454 3.4294
v  -6.7433 26.0168 9.7015
v  -7.3391 24.0980 12.6920
v  -4.5946 13.3176 12.9340
v  -1.8194 14.3962 5.5958
v  -2.9622 13.9055 8.9795
v  -3.7847 20.7885 12.6765
v  -2.1494 22.8685 1.5466
v  -1.5343 24.1941 9.6180
v  -3.0483 25.8889 7.8742
v  -2.2062 13.6124 2.2801
v  -0.5035 17.3880 10.1572
v  0.2650 21.4581 6.4820
v  -1.3201 17.1136 2.2310
v  0.1373 18.0125 5.3709
v  -1.5502 19.6668 0.5884
v  2.0305 19.4884 -0.4688
v  1.6359 16.2988 0.6369
v  2.1528 13.6231 -12.0416
v  2.1858 13.2504 -1.6633
v  4.6527 15.6604 -12.9301
v  3.0323 22.6061 -14.5829
v  5.3014 14.4688 -7.7459
v  4.0448 15.8255 -3.2747
v  3.3602 22.3409 -0.3783
v  5.2705 23.6777 -2.3945
v  6.7113 21.9525 -3.7633
v  6.2222 17.9918 -3.4264
v  7.1204 18.8239 -10.4950
v  5.9405 24.4255 -8.8665
# 142 vertices

vn 0.5027 0.7598 -0.4123
vn 0.7607 -0.5916 0.2670
vn -0.6284 -0.6874 -0.3641
vn -0.5974 0.5198 0.6107
vn -0.6739 -0.4356 0.5968
vn -0.7768 -0.3691 -0.5103
vn 0.6328 -0.3760 -0.6769
vn -0.6637 -0.7198 -0.2034
vn -0.2946 -0.5610 -0.7736
vn -0.9641 -0.1299 0.2316
vn -0.9924 -0.0974 -0.0750
vn 0.9052 -0.0655 -0.4199
vn 0.8041 0.2592 -0.5350
vn 0.4955 0.1522 -0.8552
vn -0.9061 -0.0923 -0.4130
vn -0.4735 0.8752 -0.0989
vn -0.5046 0.7750 0.3804
vn -0.6217 0.0978 0.7772
vn 0.7718 0.5014 0.3911
vn -0.2626 0.5982 -0.7571
vn -0.0169 0.8783 0.4778
vn 0.2864 0.1887 0.9393
vn 0.3192 0.1172 0.9404
vn -0.7895 0.5906 0.1668
vn 0.2315 0.8595 0.4557
vn 0.5450 0.0328 -0.8378
vn 0.5455 -0.1122 0.8306
vn 0.8367 -0.0431 0.5460
vn -0.2306 0.6972 -0.6788
vn 0.3043 0.8845 0.3536
vn 0.6969 -0.6590 -0.2830
vn -0.4577 -0.8805 0.1232
vn -0.3255 0.0990 -0.9404
vn -0.3071 0.9349 0.1782
vn 0.9251 0.2295 0.3024
vn -0.0675 -0.9977 0.0036
vn -0.8027 0.1900 -0.5652
vn -0.7143 -0.6293 -0.3062
vn -0.9878 -0.1315 -0.0832
vn -0.4737 -0.8595 0.1922
vn -0.7673 0.5017 -0.3994
vn -0.2500 0.7039 -0.6649
vn -0.4277 -0.4091 -0.8061
vn -0.0880 -0.9338 -0.3467
vn -0.5158 0.3440 -0.7846
vn -0.2840 0.7807 -0.5566
vn 0.2574 -0.5878 -0.7670
vn 0.0884 0.0493 -0.9949
vn -0.1300 0.8714 -0.4731
vn -0.4335 0.1846 -0.8821
vn 0.3545 -0.9127 0.2031
vn 0.4907 -0.8291 -0.2678
vn 0.8213 -0.5467 -0.1630
vn -0.0659 -0.8774 -0.4752
vn -0.8777 -0.2962 -0.3767
vn -0.6487 0.5446 -0.5316
vn -0.9430 0.3138 -0.1111
vn -0.7335 0.3209 -0.5992
vn -0.5571 0.8013 -0.2180
vn -0.4841 -0.7736 -0.4089
vn -0.5166 -0.1826 -0.8365
vn -0.8286 0.5508 -0.0998
vn -0.4035 0.8584 -0.3168
vn -0.6362 0.7672 0.0816
vn -0.2043 -0.9782 -0.0358
vn 0.2625 -0.9509 0.1642
vn 0.6238 -0.7469 -0.2303
vn 0.1415 -0.9898 0.0151
vn -0.1843 0.5045 -0.8435
vn -0.3073 0.9503 -0.0491
vn -0.1484 0.8047 0.5748
vn -0.0534 0.9853 0.1625
vn -0.1270 -0.4829 -0.8664
vn -0.2378 -0.8944 0.3788
vn 0.5490 -0.7088 0.4428
vn -0.0127 0.0200 -0.9997
vn 0.3067 -0.9496 -0.0641
vn 0.3360 -0.9286 0.1576
vn 0.2316 0.8682 -0.4388
vn 0.3946 0.7245 0.5652
vn 0.1198 0.9857 0.1181
vn 0.2898 0.9558 -0.0505
vn -0.9552 0.2706 -0.1196
vn -0.8788 -0.4633 -0.1143
vn -0.8996 -0.1025 0.4245
vn -0.7726 0.3181 0.5494
vn -0.9416 -0.3322 -0.0543
vn -0.9092 -0.4097 0.0737
vn -0.9487 0.1744 -0.2638
vn -0.4490 0.6336 -0.6301
vn -0.2758 0.8413 0.4648
vn -0.7187 -0.6948 -0.0283
vn -0.7715 -0.6285 0.0990
vn -0.3594 -0.8110 0.4617
vn -0.7504 -0.2969 0.5905
vn -0.2768 0.5352 0.7981
vn -0.4308 0.0512 0.9010
vn -0.5655 0.8073 -0.1688
vn -0.0256 0.9982 -0.0545
vn -0.3363 -0.9197 -0.2027
vn 0.1065 -0.9921 -0.0662
vn -0.1450 -0.4880 0.8607
vn -0.0635 0.6607 0.7480
vn 0.1899 -0.9802 -0.0564
vn 0.3475 0.1977 0.9166
vn 0.0898 0.5578 0.8251
vn 0.3253 -0.7295 0.6016
vn 0.5142 0.2527 0.8196
vn 0.0195 0.9586 0.2842
vn 0.1453 0.9374 -0.3166
vn 0.7225 -0.6759 0.1455
vn 0.7156 -0.5949 -0.3662
vn 0.6810 -0.7293 -0.0662
vn -0.0715 0.9479 0.3105
vn -0.1150 0.5716 0.8124
vn 0.7249 -0.3237 0.6081
vn 0.7062 -0.7080 -0.0048
vn 0.7958 -0.5977 0.0968
vn 0.4757 0.2001 0.8566
vn 0.6211 0.6446 0.4458
vn 0.7029 0.5587 0.4402
vn 0.4219 0.9055 0.0460
vn 0.2785 -0.9131 -0.2977
vn 0.8659 -0.2104 0.4538
vn 0.9590 0.2825 -0.0205
vn 0.9853 -0.1080 -0.1327
vn 0.9655 -0.2242 -0.1325
vn 0.8347 0.0180 0.5504
vn 0.4582 -0.0957 0.8837
vn 0.5094 -0.0662 0.8580
vn 0.2471 -0.8161 -0.5225
vn 0.5213 -0.7514 0.4045
vn 0.5912 -0.4635 -0.6601
vn 0.4909 0.3271 -0.8075
vn 0.7524 -0.6565 0.0529
vn 0.7223 -0.4951 0.4829
vn 0.5090 0.0646 0.8583
vn 0.7590 0.4795 0.4403
vn 0.9076 0.2365 0.3470
vn 0.8017 -0.3214 0.5039
vn 0.9472 -0.0735 -0.3122
vn 0.7889 0.6004 -0.1307
# 142 vertex normals

vt 0.1028 0.3704 0.0000
vt 0.1016 0.3716 0.0000
vt 0.1004 0.3704 0.0000
vt 0.2479 0.3583 0.0000
vt 0.2487 0.3567 0.0000
vt 0.2498 0.3581 0.0000
vt 0.1060 0.3707 0.0000
vt 0.1083 0.3703 0.0000
vt 0.1073 0.3718 0.0000
vt 0.2490 0.3596 0.0000
vt 0.3291 0.3596 0.0000
vt 0.3183 0.3490 0.0000
vt 0.3319 0.3355 0.0000
vt 0.2758 0.3700 0.0000
vt 0.2937 0.3715 0.0000
vt 0.2963 0.3868 0.0000
vt 0.1651 0.3956 0.0000
vt 0.1190 0.3842 0.0000
vt 0.1626 0.3802 0.0000
vt 0.2127 0.3390 0.0000
vt 0.2490 0.3496 0.0000
vt 0.1992 0.3520 0.0000
vt 0.1723 0.3379 0.0000
vt 0.2963 0.3904 0.0000
vt 0.2642 0.3839 0.0000
vt 0.2651 0.3835 0.0000
vt 0.2435 0.3646 0.0000
vt 0.2440 0.3928 0.0000
vt 0.2519 0.3793 0.0000
vt 0.2111 0.3833 0.0000
vt 0.2511 0.3614 0.0000
vt 0.2104 0.3629 0.0000
vt 0.2832 0.3547 0.0000
vt 0.1756 0.3465 0.0000
vt 0.2502 0.3505 0.0000
vt 0.1801 0.3569 0.0000
vt 0.1704 0.3521 0.0000
vt 0.1207 0.3698 0.0000
vt 0.1520 0.3701 0.0000
vt 0.2077 0.3606 0.0000
vt 0.2055 0.3524 0.0000
vt 0.0589 0.3840 0.0000
vt 0.0589 0.3700 0.0000
vt 0.1080 0.3727 0.0000
vt 0.1087 0.3811 0.0000
vt 0.2630 0.3339 0.0000
vt 0.0432 0.3627 0.0000
vt 0.0551 0.3539 0.0000
vt 0.0575 0.3693 0.0000
vt 0.0220 0.3866 0.0000
vt 0.0172 0.3756 0.0000
vt 0.0860 0.3482 0.0000
vt 0.1698 0.3359 0.0000
vt 0.1686 0.3447 0.0000
vt 0.0869 0.3510 0.0000
vt 0.1664 0.3475 0.0000
vt 0.1052 0.3567 0.0000
vt 0.0938 0.3460 0.0000
vt 0.0172 0.3387 0.0000
vt 0.1018 0.3339 0.0000
vt 0.0011 0.3339 0.0000
vt 0.1698 0.3602 0.0000
vt 0.1075 0.3695 0.0000
vt 0.2257 0.4811 0.0000
vt 0.2252 0.4663 0.0000
vt 0.2260 0.4828 0.0000
vt 0.3323 0.5703 0.0000
vt 0.3322 0.5760 0.0000
vt 0.3307 0.5691 0.0000
vt 0.2250 0.4869 0.0000
vt 0.3323 0.5596 0.0000
vt 0.3302 0.5594 0.0000
vt 0.3288 0.5580 0.0000
vt 0.2280 0.4800 0.0000
vt 0.2261 0.4810 0.0000
vt 0.2260 0.4749 0.0000
vt 0.3318 0.5673 0.0000
vt 0.1408 0.6145 0.0000
vt 0.1253 0.6395 0.0000
vt 0.1172 0.6187 0.0000
vt 0.0957 0.6442 0.0000
vt 0.1235 0.5813 0.0000
vt 0.1613 0.5921 0.0000
vt 0.2244 0.5549 0.0000
vt 0.2189 0.5238 0.0000
vt 0.2428 0.5330 0.0000
vt 0.2526 0.5682 0.0000
vt 0.1564 0.6402 0.0000
vt 0.1562 0.6111 0.0000
vt 0.0803 0.5109 0.0000
vt 0.0751 0.5354 0.0000
vt 0.0396 0.5135 0.0000
vt 0.2378 0.5139 0.0000
vt 0.2209 0.4956 0.0000
vt 0.1776 0.6228 0.0000
vt 0.0693 0.4841 0.0000
vt 0.1062 0.5518 0.0000
vt 0.0976 0.5655 0.0000
vt 0.2707 0.5388 0.0000
vt 0.2607 0.5241 0.0000
vt 0.2696 0.5142 0.0000
vt 0.2285 0.4818 0.0000
vt 0.2490 0.4845 0.0000
vt 0.1292 0.5629 0.0000
vt 0.1065 0.5399 0.0000
vt 0.1335 0.5348 0.0000
vt 0.1448 0.5377 0.0000
vt 0.1020 0.4973 0.0000
vt 0.2250 0.4602 0.0000
vt 0.2463 0.4513 0.0000
vt 0.2262 0.4368 0.0000
vt 0.1589 0.5650 0.0000
vt 0.1268 0.5150 0.0000
vt 0.1495 0.5138 0.0000
vt 0.1249 0.4950 0.0000
vt 0.2623 0.4565 0.0000
vt 0.2778 0.4930 0.0000
vt 0.2948 0.5143 0.0000
vt 0.2924 0.5000 0.0000
vt 0.1682 0.5274 0.0000
vt 0.1379 0.4956 0.0000
vt 0.1327 0.4776 0.0000
vt 0.1100 0.4641 0.0000
vt 0.2428 0.4317 0.0000
vt 0.2937 0.4768 0.0000
vt 0.3058 0.4944 0.0000
vt 0.1826 0.5357 0.0000
vt 0.2808 0.4396 0.0000
vt 0.2915 0.4520 0.0000
vt 0.2270 0.4044 0.0000
vt 0.1649 0.5062 0.0000
vt 0.1487 0.4738 0.0000
vt 0.1463 0.4868 0.0000
vt 0.1600 0.4976 0.0000
vt 0.0885 0.5683 0.0000
vt 0.0802 0.5964 0.0000
vt 0.0600 0.5845 0.0000
vt 0.0579 0.5675 0.0000
vt 0.0919 0.6078 0.0000
vt 0.0682 0.6051 0.0000
vt 0.1114 0.5890 0.0000
vt 0.1221 0.5599 0.0000
vt 0.0593 0.5365 0.0000
vt 0.0827 0.6326 0.0000
vt 0.0563 0.6290 0.0000
vt 0.0394 0.6337 0.0000
vt 0.0389 0.6081 0.0000
vt 0.1878 0.6406 0.0000
vt 0.1649 0.6362 0.0000
vt 0.1982 0.6025 0.0000
vt 0.0279 0.4751 0.0000
vt 0.0384 0.4897 0.0000
vt 0.0006 0.4862 0.0000
vt 0.0194 0.4435 0.0000
vt 0.1818 0.6635 0.0000
vt 0.0451 0.4591 0.0000
vt 0.2831 0.6029 0.0000
vt 0.2855 0.5809 0.0000
vt 0.3015 0.6017 0.0000
vt 0.2644 0.5820 0.0000
vt 0.2794 0.5575 0.0000
vt 0.1876 0.5781 0.0000
vt 0.2151 0.5875 0.0000
vt 0.0199 0.5927 0.0000
vt 0.2103 0.6510 0.0000
vt 0.3016 0.5691 0.0000
vt 0.2081 0.5589 0.0000
vt 0.2232 0.6097 0.0000
vt 0.2120 0.6225 0.0000
vt 0.3326 0.5816 0.0000
vt 0.2399 0.5792 0.0000
vt 0.2353 0.6234 0.0000
vt 0.0500 0.4372 0.0000
vt 0.0348 0.4147 0.0000
vt 0.0816 0.4529 0.0000
vt 0.3281 0.5554 0.0000
vt 0.3112 0.5439 0.0000
vt 0.2932 0.5335 0.0000
vt 0.0618 0.4215 0.0000
vt 0.0484 0.4053 0.0000
vt 0.2504 0.6011 0.0000
vt 0.2243 0.6578 0.0000
vt 0.3213 0.5161 0.0000
vt 0.3330 0.5334 0.0000
vt 0.2658 0.5846 0.0000
vt 0.2747 0.6048 0.0000
vt 0.2460 0.6407 0.0000
vt 0.1258 0.4479 0.0000
vt 0.2620 0.6650 0.0000
vt 0.0849 0.4200 0.0000
vt 0.0872 0.4032 0.0000
vt 0.3065 0.5076 0.0000
vt 0.2950 0.6104 0.0000
vt 0.2704 0.6284 0.0000
vt 0.1144 0.4064 0.0000
vt 0.3210 0.6165 0.0000
vt 0.3151 0.6264 0.0000
vt 0.2957 0.6347 0.0000
vt 0.1671 0.4144 0.0000
vt 0.1470 0.4324 0.0000
vt 0.1549 0.4152 0.0000
vt 0.1656 0.4461 0.0000
vt 0.1758 0.4307 0.0000
vt 0.1372 0.3999 0.0000
vt 0.2861 0.6536 0.0000
vt 0.2664 0.4280 0.0000
vt 0.3075 0.4666 0.0000
vt 0.2710 0.4097 0.0000
vt 0.1838 0.5144 0.0000
vt 0.2961 0.4276 0.0000
vt 0.3152 0.4476 0.0000
vt 0.1966 0.4245 0.0000
vt 0.1956 0.4473 0.0000
vt 0.2202 0.5053 0.0000
vt 0.1607 0.4612 0.0000
vt 0.1665 0.4723 0.0000
vt 0.1760 0.4743 0.0000
vt 0.2179 0.4690 0.0000
vt 0.1869 0.4622 0.0000
vt 0.1979 0.4908 0.0000
vt 0.1762 0.4929 0.0000
# 221 texture coords

o Simple_Tree_04
g Simple_Tree_04
s off
f 1/1/1 2/2/2 3/3/3 
s 1
f 4/4/4 3/5/3 2/6/2 
s off
f 1/7/1 3/8/3 4/9/4 
s 1
f 2/6/2 1/10/1 4/4/4 
f 5/11/5 6/12/6 7/13/7 
f 8/14/8 9/15/9 10/16/10 
s off
f 9/17/9 11/18/11 10/19/10 
s 2
f 12/20/12 11/21/11 9/22/9 
f 13/23/13 12/20/12 9/22/9 
s 1
f 14/24/14 15/25/15 16/26/16 
f 17/27/17 14/24/14 16/26/16 
s off
f 16/26/16 15/25/15 17/27/17 
f 8/28/8 15/25/15 14/24/14 
s 1
f 18/29/18 15/25/15 8/28/8 
f 15/25/15 18/29/18 17/27/17 
s off
f 8/28/8 10/30/10 18/29/18 
s 1
f 9/15/9 8/14/8 14/31/14 
f 18/29/18 10/30/10 17/27/17 
f 10/30/10 19/32/19 17/27/17 
s off
f 17/33/17 9/15/9 14/31/14 
s 2
f 13/23/13 9/22/9 20/34/20 
s 1
f 17/27/17 19/32/19 21/35/21 
s 2
f 20/34/20 9/22/9 17/36/17 
s 4
f 20/34/20 17/36/17 21/37/21 
s 1
f 6/12/6 5/11/5 11/21/11 
f 10/19/10 11/18/11 22/38/22 
f 10/19/10 22/38/22 23/39/23 
f 24/40/24 10/19/10 23/39/23 
f 24/40/24 23/39/23 25/41/25 
s 2
f 19/42/19 10/43/10 24/44/24 
f 19/42/19 24/44/24 25/45/25 
s off
f 26/46/26 7/13/7 6/12/6 
s 2
f 26/46/26 6/12/6 11/21/11 
f 12/20/12 26/46/26 11/21/11 
s 8
f 19/47/19 23/48/23 12/49/12 
f 19/47/19 12/49/12 13/50/13 
s 4
f 13/23/13 20/34/20 21/37/21 
s 8
f 21/51/21 19/47/19 13/50/13 
s off
f 22/52/22 5/53/5 27/54/27 
f 22/55/22 27/56/27 28/57/28 
f 11/58/11 5/59/5 22/60/22 
s 8
f 23/48/23 22/55/22 12/49/12 
f 25/61/25 23/48/23 19/47/19 
s off
f 27/56/27 7/62/7 26/63/26 
s 8
f 28/57/28 27/56/27 26/63/26 
f 28/57/28 26/63/26 12/49/12 
f 22/55/22 28/57/28 12/49/12 
s off
f 29/64/29 30/65/30 31/66/31 
f 31/67/31 30/68/30 32/69/32 
f 30/65/30 29/64/29 32/70/32 
f 32/70/32 29/64/29 31/66/31 
f 33/71/33 34/72/34 35/73/35 
f 33/74/33 35/75/35 36/76/36 
s 1
f 35/73/35 34/72/34 36/77/36 
f 36/77/36 34/72/34 33/71/33 
f 37/78/37 38/79/38 39/80/39 
f 40/81/40 39/80/39 38/79/38 
f 37/78/37 39/80/39 41/82/41 
f 42/83/42 37/78/37 41/82/41 
s 2
f 38/84/38 43/85/43 44/86/44 
f 38/84/38 44/86/44 40/87/40 
s 1
f 37/78/37 43/88/43 38/79/38 
f 43/88/43 37/78/37 45/89/45 
f 45/89/45 37/78/37 42/83/42 
s 4
f 46/90/46 42/91/42 41/92/41 
s 2
f 43/85/43 47/93/47 44/86/44 
f 48/94/48 47/93/47 43/85/43 
s 1
f 48/95/48 43/88/43 45/89/45 
f 48/95/48 45/89/45 42/83/42 
s 4
f 49/96/49 46/90/46 41/92/41 
f 50/97/50 48/98/48 42/91/42 
s 2
f 51/99/51 44/86/44 52/100/52 
f 52/100/52 44/86/44 47/93/47 
s 3
f 53/101/53 52/100/52 47/93/47 
s 2
f 47/93/47 48/94/48 50/102/50 
s 3
f 50/102/50 54/103/54 47/93/47 
s 1
f 55/104/55 50/97/50 56/105/56 
s 5
f 57/106/57 55/104/55 56/105/56 
s 4
f 58/107/58 55/104/55 57/106/57 
f 46/90/46 50/97/50 42/91/42 
f 56/105/56 50/97/50 46/90/46 
f 59/108/59 56/105/56 46/90/46 
f 49/96/49 59/108/59 46/90/46 
s 2
f 51/99/51 52/100/52 53/101/53 
s 1
f 54/103/54 53/101/53 47/93/47 
s 8
f 55/109/55 60/110/60 54/103/54 
f 61/111/61 60/110/60 55/109/55 
f 55/109/55 54/103/54 50/102/50 
s 4
f 61/112/61 55/104/55 58/107/58 
f 57/106/57 56/105/56 62/113/62 
f 62/113/62 56/105/56 59/108/59 
f 63/114/63 58/107/58 57/106/57 
f 57/106/57 62/113/62 63/114/63 
f 62/113/62 59/108/59 64/115/64 
s 8
f 54/103/54 60/110/60 65/116/65 
s 2
f 53/101/53 54/103/54 66/117/66 
f 67/118/67 66/117/66 68/119/68 
s 4
f 63/114/63 69/120/69 58/107/58 
f 70/121/70 62/113/62 64/115/64 
f 71/122/71 64/115/64 59/108/59 
f 59/108/59 72/123/72 71/122/71 
s 2
f 66/117/66 54/103/54 65/116/65 
s 8
f 73/124/73 60/110/60 61/111/61 
s 9
f 66/117/66 65/116/65 74/125/74 
s 1
f 68/119/68 66/117/66 75/126/75 
f 66/117/66 74/125/74 75/126/75 
s 4
f 76/127/76 61/112/61 69/120/69 
f 69/120/69 61/112/61 58/107/58 
f 70/121/70 63/114/63 62/113/62 
f 71/122/71 70/121/70 64/115/64 
s 8
f 65/116/65 60/110/60 77/128/77 
f 74/125/74 65/116/65 78/129/78 
f 76/130/76 73/124/73 61/111/61 
s 4
f 79/131/79 69/120/69 63/114/63 
f 80/132/80 81/133/81 71/122/71 
f 82/134/82 79/131/79 63/114/63 
f 82/134/82 63/114/63 70/121/70 
f 82/134/82 70/121/70 81/133/81 
f 81/133/81 70/121/70 71/122/71 
s 1
f 83/135/83 84/136/84 85/137/85 
f 83/135/83 85/137/85 86/138/86 
f 84/136/84 87/139/87 88/140/88 
f 89/141/89 39/80/39 87/139/87 
f 84/136/84 88/140/88 85/137/85 
f 89/141/89 84/136/84 83/135/83 
f 89/141/89 87/139/87 84/136/84 
f 90/142/90 89/141/89 83/135/83 
f 83/135/83 86/138/86 91/143/91 
f 39/80/39 40/81/40 92/144/92 
f 93/145/93 94/146/94 95/147/95 
f 92/144/92 93/145/93 87/139/87 
f 87/139/87 93/145/93 88/140/88 
f 88/140/88 93/145/93 95/147/95 
f 87/139/87 39/80/39 92/144/92 
f 88/140/88 95/147/95 85/137/85 
f 39/80/39 89/141/89 41/82/41 
s 8
f 96/148/96 86/149/86 97/150/97 
s 1
f 41/82/41 89/141/89 90/142/90 
s 4
f 98/151/98 90/152/90 83/153/83 
f 98/151/98 83/153/83 91/154/91 
s 8
f 86/149/86 96/148/96 91/155/91 
s 4
f 99/156/99 98/151/98 91/154/91 
s 2
f 93/157/93 100/158/100 94/159/94 
f 92/160/92 40/87/40 101/161/101 
f 92/160/92 100/158/100 93/157/93 
s 8
f 97/150/97 95/162/95 102/163/102 
s 1
f 97/164/97 85/137/85 95/147/95 
f 86/138/86 85/137/85 97/164/97 
s 4
f 49/96/49 41/92/41 90/152/90 
s 8
f 91/155/91 96/148/96 103/165/103 
s 4
f 90/152/90 98/151/98 99/156/99 
s 2
f 44/86/44 51/99/51 40/87/40 
f 40/87/40 51/99/51 101/161/101 
f 101/161/101 100/158/100 92/160/92 
f 94/159/94 100/158/100 104/166/104 
s 8
f 95/162/95 94/167/94 102/163/102 
f 97/150/97 102/163/102 105/168/105 
f 96/148/96 97/150/97 106/169/106 
f 96/148/96 106/169/106 103/165/103 
s 4
f 49/96/49 90/152/90 99/156/99 
s 2
f 100/158/100 101/161/101 104/166/104 
f 94/159/94 104/166/104 107/170/107 
s 8
f 94/167/94 107/171/107 102/163/102 
f 97/150/97 105/168/105 106/169/106 
f 106/169/106 108/172/108 103/165/103 
s 4
f 109/173/109 91/154/91 103/174/103 
f 110/175/110 49/96/49 99/156/99 
f 110/175/110 99/156/99 109/173/109 
f 109/173/109 99/156/99 91/154/91 
s 2
f 111/176/111 104/166/104 112/177/112 
f 101/161/101 51/99/51 113/178/113 
f 101/161/101 113/178/113 104/166/104 
s 8
f 102/163/102 107/171/107 105/168/105 
f 105/168/105 108/172/108 106/169/106 
s 4
f 110/175/110 72/123/72 49/96/49 
f 109/173/109 103/174/103 114/179/114 
f 115/180/115 114/179/114 103/174/103 
s 2
f 104/166/104 111/176/111 107/170/107 
f 113/178/113 51/99/51 53/101/53 
f 104/166/104 113/178/113 112/177/112 
s 8
f 105/168/105 107/171/107 116/181/116 
f 103/165/103 108/172/108 115/182/115 
s 4
f 72/123/72 59/108/59 49/96/49 
f 110/175/110 109/173/109 114/179/114 
s 2
f 113/178/113 53/101/53 67/118/67 
f 113/178/113 67/118/67 117/183/117 
f 111/176/111 112/177/112 118/184/118 
f 118/184/118 112/177/112 113/178/113 
s 8
f 116/181/116 107/171/107 111/185/111 
s 2
f 67/118/67 53/101/53 66/117/66 
s 8
f 111/185/111 118/186/118 116/181/116 
f 105/168/105 116/181/116 108/172/108 
f 108/172/108 116/181/116 119/187/119 
f 115/182/115 108/172/108 119/187/119 
s 4
f 110/175/110 120/188/120 72/123/72 
s 8
f 115/182/115 119/187/119 121/189/121 
s 4
f 122/190/122 120/188/120 110/175/110 
f 122/190/122 110/175/110 114/179/114 
f 114/179/114 115/180/115 121/191/121 
f 121/191/121 122/190/122 114/179/114 
s 5
f 123/192/123 67/118/67 75/126/75 
s 6
f 68/119/68 75/126/75 67/118/67 
s 3
f 67/118/67 123/192/123 117/183/117 
s 2
f 113/178/113 117/183/117 118/184/118 
s 8
f 118/186/118 117/193/117 124/194/124 
f 116/181/116 118/186/118 124/194/124 
f 116/181/116 124/194/124 119/187/119 
s 4
f 71/122/71 72/123/72 120/188/120 
f 122/190/122 125/195/125 120/188/120 
s 2
f 117/183/117 123/192/123 75/126/75 
s off
f 117/193/117 75/196/75 126/197/126 
s 8
f 127/198/127 117/193/117 126/197/126 
f 117/193/117 127/198/127 124/194/124 
s 4
f 75/199/75 128/200/128 126/201/126 
f 128/200/128 75/199/75 129/202/129 
f 75/199/75 130/203/130 129/202/129 
f 127/204/127 126/201/126 128/200/128 
s 5
f 125/195/125 127/204/127 128/200/128 
s 8
f 121/189/121 124/194/124 125/205/125 
f 119/187/119 124/194/124 121/189/121 
s 5
f 128/200/128 129/202/129 120/188/120 
s 1
f 125/195/125 128/200/128 120/188/120 
s 4
f 125/195/125 122/190/122 121/191/121 
f 120/188/120 80/132/80 71/122/71 
s 8
f 60/110/60 131/206/131 77/128/77 
f 65/116/65 77/128/77 78/129/78 
f 74/125/74 78/129/78 132/207/132 
f 73/124/73 131/206/131 60/110/60 
f 75/126/75 74/125/74 132/207/132 
f 133/208/133 73/124/73 76/130/76 
s 4
f 134/209/134 76/127/76 69/120/69 
f 134/209/134 69/120/69 79/131/79 
f 80/132/80 82/134/82 81/133/81 
s 8
f 77/128/77 131/206/131 133/208/133 
f 78/129/78 77/128/77 135/210/135 
f 73/124/73 133/208/133 131/206/131 
f 132/207/132 78/129/78 136/211/136 
s 4
f 130/203/130 132/212/132 136/213/136 
f 129/202/129 130/203/130 136/213/136 
f 133/214/133 76/127/76 134/209/134 
f 80/132/80 137/215/137 138/216/138 
f 138/216/138 139/217/139 82/134/82 
f 80/132/80 138/216/138 82/134/82 
s 8
f 77/128/77 133/208/133 135/210/135 
f 136/211/136 78/129/78 135/210/135 
s 4
f 136/213/136 135/218/135 140/219/140 
f 140/219/140 129/202/129 136/213/136 
f 141/220/141 133/214/133 134/209/134 
s 5
f 129/202/129 140/219/140 137/215/137 
s 4
f 137/215/137 140/219/140 138/216/138 
f 138/216/138 140/219/140 139/217/139 
f 142/221/142 134/209/134 79/131/79 
f 142/221/142 79/131/79 82/134/82 
f 142/221/142 82/134/82 139/217/139 
f 141/220/141 135/218/135 133/214/133 
f 140/219/140 135/218/135 141/220/141 
f 140/219/140 141/220/141 139/217/139 
f 142/221/142 141/220/141 134/209/134 
f 139/217/139 141/220/141 142/221/142 
f 75/199/75 132/212/132 130/203/130 
s 8
f 124/194/124 127/198/127 125/205/125 
s 1
f 120/188/120 129/202/129 137/215/137 
s 4
f 80/132/80 120/188/120 137/215/137 
# 0 polygons - 263 triangles

